# xmcd
#
# Track frame offsets:
#	150
#	16766
#	33334
#	55712
#	69456
#	83792
#	98120
#	117326
#	132632
#	149509
#	167406
#	183737
#	194264
#	209579
#	224697
#	239593
#	256458
#	270397
#	286522
#	297665
#	313247
#	326058
#
# Disc length: 4502 seconds
#
# Revision: 4
# Processed by: cddbd v1.5.2PL0 Copyright (c) Steve Scherf et al.
# Submitted via: EZCDAudioConverter 6.0.3.1
#
DISCID=5c119416
DTITLE=Southern Pacific - Killbilly Hill (1986)/County Line (1990)
DYEAR=2003
DGENRE=Country
TTITLE0=Road Song 
TTITLE1=A Girl Like Emmylou 
TTITLE2=Pink Cadillac
TTITLE3=I Still Look For You 
TTITLE4=Pull Your Hat Down Tight 
TTITLE5=Killbilly Hill 
TTITLE6=Don't Let Go Of My Heart 
TTITLE7=What's It Gonna Take 
TTITLE8=Hearts On The Borderline 
TTITLE9=Bluegrass Blues 
TTITLE10=Any Way The Wind Blows 
TTITLE11=I Can't Complain 
TTITLE12=Beyond Love 
TTITLE13=Time's Up 
TTITLE14=Memphis Queen 
TTITLE15=Side Saddle 
TTITLE16=One That Got Away 
TTITLE17=Reckless Heart 
TTITLE18=Mary Lou 
TTITLE19=Help Wanted 
TTITLE20=G.T.O.
TTITLE21=I Go To Pieces 
EXTD=
EXTT0=
EXTT1=
EXTT2=
EXTT3=
EXTT4=
EXTT5=
EXTT6=
EXTT7=
EXTT8=
EXTT9=
EXTT10=
EXTT11=
EXTT12=
EXTT13=
EXTT14=
EXTT15=
EXTT16=
EXTT17=
EXTT18=
EXTT19=
EXTT20=
EXTT21=
PLAYORDER=
